HIERARCHY
ROOT Hips
{
  OFFSET 53.2023 85.9872 49.721
  CHANNELS 6 Xposition Yposition Zposition Zrotation Xrotation Yrotation
  JOINT spine
  {
    OFFSET 0 6.3926 0.367606
    CHANNELS 3 Zrotation Xrotation Yrotation
    JOINT spine1
    {
      OFFSET 0 9.17611 0
      CHANNELS 3 Zrotation Xrotation Yrotation
      JOINT spine2
      {
        OFFSET 0 8.79238 0
        CHANNELS 3 Zrotation Xrotation Yrotation
        JOINT Neck
        {
          OFFSET 0 22.5737 1.07624
          CHANNELS 3 Zrotation Xrotation Yrotation
          JOINT Head
          {
            OFFSET 0 6.82011 0
            CHANNELS 3 Zrotation Xrotation Yrotation
            End Site
            {
              OFFSET 0 16.5085 -5.44427
            }
          }
        }
        JOINT RightShoulder
        {
          OFFSET -3.70221 9.49509 -0.515508
          CHANNELS 3 Zrotation Xrotation Yrotation
          JOINT RightArm
          {
            OFFSET 0 12.4537 0
            CHANNELS 3 Zrotation Xrotation Yrotation
            JOINT RightArmRoll
            {
              OFFSET 0 6.28686 0
              CHANNELS 3 Zrotation Xrotation Yrotation
              JOINT RightForeArm
              {
                OFFSET 0 18.3114 0
                CHANNELS 3 Zrotation Xrotation Yrotation
                JOINT RightForeArmRoll
                {
                  OFFSET 0 7.05482 0
                  CHANNELS 3 Zrotation Xrotation Yrotation
                  JOINT RightHand
                  {
                    OFFSET 0 14.1575 0
                    CHANNELS 3 Zrotation Xrotation Yrotation
                    End Site
                    {
                      OFFSET 0 0 0
                    }
                  }
                }
              }
            }
          }
        }
        JOINT LeftShoulder
        {
          OFFSET 3.70221 9.49509 -0.515508
          CHANNELS 3 Zrotation Xrotation Yrotation
          JOINT LeftArm
          {
            OFFSET 0 12.4537 0
            CHANNELS 3 Zrotation Xrotation Yrotation
            JOINT LeftArmRoll
            {
              OFFSET 0 6.28686 0
              CHANNELS 3 Zrotation Xrotation Yrotation
              JOINT LeftForeArm
              {
                OFFSET 0 18.3114 0
                CHANNELS 3 Zrotation Xrotation Yrotation
                JOINT LeftForeArmRoll
                {
                  OFFSET 0 7.05483 0
                  CHANNELS 3 Zrotation Xrotation Yrotation
                  JOINT LeftHand
                  {
                    OFFSET 0 14.1575 0
                    CHANNELS 3 Zrotation Xrotation Yrotation
                    End Site
                    {
                      OFFSET 0 0 0
                    }
                  }
                }
              }
            }
          }
        }
      }
    }
  }
  JOINT RightUpLeg
  {
    OFFSET -5.66616 -1.03903 -0.87161
    CHANNELS 3 Zrotation Xrotation Yrotation
    JOINT RightUpLegRoll
    {
      OFFSET 0 16.6005 0
      CHANNELS 3 Zrotation Xrotation Yrotation
      JOINT RightLeg
      {
        OFFSET 0 -20.5572 0
        CHANNELS 3 Zrotation Xrotation Yrotation
        JOINT RightLegRoll
        {
          OFFSET 0 20.6244 0
          CHANNELS 3 Zrotation Xrotation Yrotation
          JOINT RightFoot
          {
            OFFSET 0 17.1664 0
            CHANNELS 3 Zrotation Xrotation Yrotation
            JOINT RightToeBase
            {
              OFFSET 0 14.3502 0
              CHANNELS 3 Zrotation Xrotation Yrotation
              End Site
              {
                OFFSET 0.00608251 6.94971 -0.801061
              }
            }
          }
        }
      }
    }
  }
  JOINT LeftUpLeg
  {
    OFFSET 5.66616 -1.03903 -0.87161
    CHANNELS 3 Zrotation Xrotation Yrotation
    JOINT LeftUpLegRoll
    {
      OFFSET 0 16.6006 0
      CHANNELS 3 Zrotation Xrotation Yrotation
      JOINT LeftLeg
      {
        OFFSET 0 20.5571 0
        CHANNELS 3 Zrotation Xrotation Yrotation
        JOINT LeftLegRoll
        {
          OFFSET 0 20.8151 0
          CHANNELS 3 Zrotation Xrotation Yrotation
          JOINT LeftFoot
          {
            OFFSET 0 16.9757 0
            CHANNELS 3 Zrotation Xrotation Yrotation
            JOINT LeftToeBase
            {
              OFFSET 0 14.3502 0
              CHANNELS 3 Zrotation Xrotation Yrotation
              End Site
              {
                OFFSET -0.0272592 6.9497 -0.801061
              }
            }
          }
        }
      }
    }
  }
}
MOTION
Frames: 6
Frame Time: 0.00208333
52.1772 74.512 27.2215 1.31007 26.9461 1.86544 -0.648306 0.357153 -0.55313 -1.28592 4.72261 -1.02064 -1.27584 6.36733 -1.00029 1.87538 -12.4919 2.25517 0.195276 -1.99203 2.47589 53.625 4.91283 4.03732 118.398 29.0747 -24.7389 -9.11264e-006 -1.36691e-006 -7.03043e-006 17.7464 42.1832 -7.35699 8.61274e-006 -6.49422e-006 -3 8.02888 -4.95084 0.697398 -47.9029 -2.04883 0.0681087 -122.418 28.0665 27.9441 4.32814e-006 -1.56669e-006 -6.34797e-007 -17.5572 39.0886 7.98875 2.83392e-006 9.31641e-006 2.99999 -8.02896 -4.95088 -0.697397 164.565 70.3001 11.6427 180 -1.52581e-005 179.447 176.272 50.0039 179.78 2.80283e-006 -3.99564e-006 0.634586 -18.2383 69.4677 20.7821 8.13649 25.2327 -3.48774 -171.296 69.7118 -4.33552 4.54188e-006 -4.6773e-006 -0.600946 -2.90598 -51.2946 -0.0968551 2.2066e-006 -3.05657e-006 -0.916546 20.975 71.7203 -23.1211 -8.1366 25.2344 3.4854 
52.1745 74.5898 27.3311 1.30475 26.816 1.86431 -0.645787 0.346511 -0.550168 -1.282 4.70126 -1.01372 -1.27199 6.34599 -0.993414 1.88243 -12.4477 2.24685 0.195627 -1.9743 2.46903 53.6486 4.92178 4.03872 118.408 29.1534 -24.5787 -9.11264e-006 -1.36691e-006 -7.03043e-006 17.7574 41.6703 -7.25831 8.61274e-006 -6.49422e-006 -3 8.02888 -4.95084 0.697398 -47.9213 -2.03339 0.0585007 -122.479 28.1228 27.7859 4.32814e-006 -1.56669e-006 -6.34797e-007 -17.4748 38.6272 7.84811 2.83392e-006 9.31641e-006 2.99999 -8.02896 -4.95088 -0.697397 164.807 70.0117 11.4009 180 -1.52581e-005 179.446 176.276 49.8953 179.779 2.80283e-006 -3.99564e-006 0.633841 -18.2955 69.5258 20.8373 8.13649 25.2327 -3.48774 -171.427 69.4213 -4.19271 4.54188e-006 -4.6773e-006 -0.603376 -2.8748 -51.1895 -0.0847532 2.2066e-006 -3.05657e-006 -0.918805 21.0569 71.7754 -23.1879 -8.1366 25.2344 3.4854 
52.1706 74.6601 27.4446 1.29965 26.6854 1.86314 -0.643259 0.335857 -0.547068 -1.27805 4.67989 -1.00658 -1.26811 6.32462 -0.98633 1.88931 -12.4018 2.23817 0.195313 -1.95661 2.46175 53.6717 4.92922 4.0392 118.418 29.2286 -24.4204 -9.11264e-006 -1.36691e-006 -7.03043e-006 17.7685 41.1639 -7.16145 8.61274e-006 -6.49422e-006 -3 8.02888 -4.95084 0.697398 -47.9412 -2.01764 0.0488534 -122.536 28.1767 27.6273 4.32814e-006 -1.56669e-006 -6.34797e-007 -17.3943 38.1717 7.7109 2.83392e-006 9.31641e-006 2.99999 -8.02896 -4.95088 -0.697397 165.041 69.722 11.1674 180 -1.52581e-005 179.444 176.279 49.7855 179.78 2.80283e-006 -3.99564e-006 0.633094 -18.3525 69.5831 20.892 8.13649 25.2327 -3.48774 -171.554 69.1299 -4.05273 4.54188e-006 -4.6773e-006 -0.605805 -2.84378 -51.0834 -0.0727538 2.2066e-006 -3.05657e-006 -0.921017 21.1384 71.8299 -23.2545 -8.1366 25.2344 3.4854 
52.1615 74.725 27.5435 1.29483 26.5542 1.86192 -0.640722 0.325208 -0.543806 -1.27402 4.65854 -0.999211 -1.26416 6.30326 -0.979018 1.8959 -12.3539 2.22918 0.194086 -1.93915 2.45409 53.6942 4.93528 4.03886 118.426 29.3001 -24.2634 -9.11264e-006 -1.36691e-006 -7.03043e-006 17.7799 40.6648 -7.06668 8.61274e-006 -6.49422e-006 -3 8.02888 -4.95084 0.697398 -47.963 -2.00133 0.0390356 -122.587 28.2278 27.4682 4.32814e-006 -1.56669e-006 -6.34797e-007 -17.316 37.7228 7.57745 2.83392e-006 9.31641e-006 2.99999 -8.02896 -4.95088 -0.697397 165.266 69.4309 10.9422 180 -1.52581e-005 179.443 176.281 49.6746 179.78 2.80283e-006 -3.99564e-006 0.63233 -18.4092 69.6395 20.9461 8.13649 25.2327 -3.48774 -171.68 68.8372 -3.91499 4.54188e-006 -4.6773e-006 -0.608232 -2.81288 -50.9761 -0.0608394 2.2066e-006 -3.05657e-006 -0.923174 21.2195 71.8838 -23.3207 -8.1366 25.2344 3.4854 
52.1637 74.7939 27.6616 1.29036 26.4222 1.86066 -0.638178 0.314585 -0.540352 -1.2699 4.63723 -0.991599 -1.26012 6.28196 -0.971463 1.90213 -12.3034 2.21994 0.191696 -1.9221 2.44608 53.7161 4.94008 4.03781 118.431 29.3677 -24.1076 -9.11264e-006 -1.36691e-006 -7.03043e-006 17.7918 40.1733 -6.97425 8.61274e-006 -6.49422e-006 -3 8.02888 -4.95084 0.697398 -47.9873 -1.98422 0.0289163 -122.633 28.2758 27.3087 4.32814e-006 -1.56669e-006 -6.34797e-007 -17.2403 37.2815 7.44809 2.83392e-006 9.31641e-006 2.99999 -8.02896 -4.95088 -0.697397 165.483 69.1381 10.7253 180 -1.52581e-005 179.441 176.283 49.5624 179.781 2.80283e-006 -3.99564e-006 0.631531 -18.4655 69.6951 20.9994 8.13649 25.2327 -3.48774 -171.804 68.5431 -3.77893 4.54188e-006 -4.6773e-006 -0.610656 -2.78205 -50.8675 -0.0489931 2.2066e-006 -3.05657e-006 -0.925267 21.3001 71.937 -23.3866 -8.1366 25.2344 3.4854 
52.1652 74.874 27.7663 1.28632 26.2894 1.85934 -0.635625 0.304006 -0.536682 -1.26566 4.61601 -0.983727 -1.25596 6.26074 -0.963649 1.90788 -12.2501 2.21051 0.187896 -1.90566 2.43774 53.7374 4.94376 4.03612 118.435 29.4311 -23.9523 -9.11264e-006 -1.36691e-006 -7.03043e-006 17.8045 39.6902 -6.88444 8.61274e-006 -6.49422e-006 -3 8.02888 -4.95084 0.697398 -48.0146 -1.96605 0.0183642 -122.671 28.3202 27.1485 4.32814e-006 -1.56669e-006 -6.34797e-007 -17.1676 36.8487 7.32311 2.83392e-006 9.31641e-006 2.99999 -8.02896 -4.95088 -0.697397 165.693 68.8434 10.5166 180 -1.52581e-005 179.439 176.283 49.4488 179.782 2.80283e-006 -3.99564e-006 0.630683 -18.5213 69.7499 21.0519 8.13649 25.2327 -3.48774 -171.928 68.2473 -3.64406 4.54188e-006 -4.6773e-006 -0.613075 -2.75128 -50.7573 -0.0371982 2.2066e-006 -3.05657e-006 -0.927289 21.3802 71.9896 -23.4521 -8.1366 25.2344 3.4854 
